<mxfile host="app.diagrams.net" modified="2021-10-06T05:37:08.108Z" agent="5.0 (X11; Linux x86_64) AppleWebKit/537.36 (KHTML, like Gecko) Chrome/92.0.4515.159 Safari/537.36" etag="_z1Myxz8SKc6fZSGd8pJ" version="15.1.1" type="github">
  <diagram id="zkXicuPvgsGrKPKEtwCS" name="Page-1">
    <mxGraphModel dx="1336" dy="694" grid="1" gridSize="10" guides="1" tooltips="1" connect="1" arrows="1" fold="1" page="1" pageScale="1" pageWidth="20" pageHeight="20" math="0" shadow="0">
      <root>
        <mxCell id="0" />
        <mxCell id="1" parent="0" />
        <mxCell id="TKeheR-i_yWEPl4L2CH7-73" value="" style="group;" vertex="1" connectable="0" parent="1">
          <mxGeometry x="-20" y="45" width="855" height="410" as="geometry" />
        </mxCell>
        <mxCell id="TKeheR-i_yWEPl4L2CH7-1" value="Potential evapotranspiration&lt;br style=&quot;font-size: 15px;&quot;&gt;&lt;b style=&quot;font-size: 15px;&quot;&gt;PE = f(T)&lt;/b&gt;" style="rounded=1;whiteSpace=wrap;html=1;strokeWidth=2;fillColor=#ffe6cc;strokeColor=#d79b00;fontSize=15;fontFamily=Helvetica;" vertex="1" parent="TKeheR-i_yWEPl4L2CH7-73">
          <mxGeometry x="55" y="20" width="120" height="60" as="geometry" />
        </mxCell>
        <mxCell id="TKeheR-i_yWEPl4L2CH7-2" value="Precipitation&lt;br style=&quot;font-size: 15px;&quot;&gt;&lt;b style=&quot;font-size: 15px;&quot;&gt;P&lt;/b&gt;" style="rounded=1;whiteSpace=wrap;html=1;strokeWidth=2;fillColor=#dae8fc;strokeColor=#6c8ebf;fontSize=15;fontFamily=Helvetica;" vertex="1" parent="TKeheR-i_yWEPl4L2CH7-73">
          <mxGeometry x="215" y="20" width="120" height="60" as="geometry" />
        </mxCell>
        <mxCell id="TKeheR-i_yWEPl4L2CH7-3" value="Actual evapotranspiration&lt;br style=&quot;font-size: 15px;&quot;&gt;&lt;b style=&quot;font-size: 15px;&quot;&gt;AE&lt;/b&gt;" style="rounded=1;whiteSpace=wrap;html=1;strokeWidth=2;fillColor=#d5e8d4;strokeColor=#82b366;fontSize=15;fontFamily=Helvetica;" vertex="1" parent="TKeheR-i_yWEPl4L2CH7-73">
          <mxGeometry x="375" y="20" width="120" height="60" as="geometry" />
        </mxCell>
        <mxCell id="TKeheR-i_yWEPl4L2CH7-16" style="edgeStyle=orthogonalEdgeStyle;rounded=0;orthogonalLoop=1;jettySize=auto;html=1;entryX=1;entryY=0.5;entryDx=0;entryDy=0;strokeWidth=2;fontSize=15;fontFamily=Helvetica;" edge="1" parent="TKeheR-i_yWEPl4L2CH7-73" source="TKeheR-i_yWEPl4L2CH7-4" target="TKeheR-i_yWEPl4L2CH7-3">
          <mxGeometry relative="1" as="geometry" />
        </mxCell>
        <mxCell id="TKeheR-i_yWEPl4L2CH7-4" value="&lt;b style=&quot;font-size: 15px;&quot;&gt;AE&lt;/b&gt; product selection" style="rounded=1;whiteSpace=wrap;html=1;strokeWidth=2;fillColor=#e1d5e7;strokeColor=#9673a6;fontSize=15;fontFamily=Helvetica;" vertex="1" parent="TKeheR-i_yWEPl4L2CH7-73">
          <mxGeometry x="535" y="20" width="120" height="60" as="geometry" />
        </mxCell>
        <mxCell id="TKeheR-i_yWEPl4L2CH7-5" value="Runoff&lt;br style=&quot;font-size: 14px&quot;&gt;&lt;b&gt;Q&lt;/b&gt;" style="rounded=1;whiteSpace=wrap;html=1;strokeWidth=2;fillColor=#f5f5f5;strokeColor=#666666;gradientColor=#b3b3b3;fontSize=14;fontFamily=Helvetica;" vertex="1" parent="TKeheR-i_yWEPl4L2CH7-73">
          <mxGeometry x="695" y="20" width="120" height="60" as="geometry" />
        </mxCell>
        <mxCell id="TKeheR-i_yWEPl4L2CH7-6" value="Aridity index&lt;br style=&quot;font-size: 15px;&quot;&gt;&lt;b style=&quot;font-size: 15px;&quot;&gt;PE/P&lt;/b&gt;" style="rounded=1;whiteSpace=wrap;html=1;strokeWidth=2;fillColor=#f5f5f5;strokeColor=#666666;fontSize=15;fontFamily=Helvetica;" vertex="1" parent="TKeheR-i_yWEPl4L2CH7-73">
          <mxGeometry x="135" y="140" width="120" height="60" as="geometry" />
        </mxCell>
        <mxCell id="TKeheR-i_yWEPl4L2CH7-12" style="edgeStyle=orthogonalEdgeStyle;rounded=0;orthogonalLoop=1;jettySize=auto;html=1;entryX=0.5;entryY=0;entryDx=0;entryDy=0;strokeWidth=2;fillColor=#ffe6cc;strokeColor=#d79b00;fontSize=15;fontFamily=Helvetica;" edge="1" parent="TKeheR-i_yWEPl4L2CH7-73" source="TKeheR-i_yWEPl4L2CH7-1" target="TKeheR-i_yWEPl4L2CH7-6">
          <mxGeometry relative="1" as="geometry" />
        </mxCell>
        <mxCell id="TKeheR-i_yWEPl4L2CH7-13" style="edgeStyle=orthogonalEdgeStyle;rounded=0;orthogonalLoop=1;jettySize=auto;html=1;entryX=0.5;entryY=0;entryDx=0;entryDy=0;strokeWidth=2;fillColor=#dae8fc;strokeColor=#6c8ebf;fontSize=15;fontFamily=Helvetica;" edge="1" parent="TKeheR-i_yWEPl4L2CH7-73" source="TKeheR-i_yWEPl4L2CH7-2" target="TKeheR-i_yWEPl4L2CH7-6">
          <mxGeometry relative="1" as="geometry" />
        </mxCell>
        <mxCell id="TKeheR-i_yWEPl4L2CH7-7" value="Evaporative index&lt;br style=&quot;font-size: 15px;&quot;&gt;&lt;b style=&quot;font-size: 15px;&quot;&gt;AE/P&lt;/b&gt;" style="rounded=1;whiteSpace=wrap;html=1;strokeWidth=2;fillColor=#f5f5f5;strokeColor=#666666;fontSize=15;fontFamily=Helvetica;" vertex="1" parent="TKeheR-i_yWEPl4L2CH7-73">
          <mxGeometry x="295" y="140" width="120" height="60" as="geometry" />
        </mxCell>
        <mxCell id="TKeheR-i_yWEPl4L2CH7-14" style="edgeStyle=orthogonalEdgeStyle;rounded=0;orthogonalLoop=1;jettySize=auto;html=1;strokeWidth=2;fillColor=#dae8fc;strokeColor=#6c8ebf;fontSize=15;fontFamily=Helvetica;" edge="1" parent="TKeheR-i_yWEPl4L2CH7-73" source="TKeheR-i_yWEPl4L2CH7-2" target="TKeheR-i_yWEPl4L2CH7-7">
          <mxGeometry relative="1" as="geometry" />
        </mxCell>
        <mxCell id="TKeheR-i_yWEPl4L2CH7-15" style="edgeStyle=orthogonalEdgeStyle;rounded=0;orthogonalLoop=1;jettySize=auto;html=1;entryX=0.5;entryY=0;entryDx=0;entryDy=0;strokeWidth=2;fillColor=#d5e8d4;strokeColor=#82b366;fontSize=15;fontFamily=Helvetica;" edge="1" parent="TKeheR-i_yWEPl4L2CH7-73" source="TKeheR-i_yWEPl4L2CH7-3" target="TKeheR-i_yWEPl4L2CH7-7">
          <mxGeometry relative="1" as="geometry">
            <mxPoint x="355" y="130" as="targetPoint" />
            <Array as="points">
              <mxPoint x="435" y="110" />
              <mxPoint x="355" y="110" />
            </Array>
          </mxGeometry>
        </mxCell>
        <mxCell id="TKeheR-i_yWEPl4L2CH7-31" style="edgeStyle=orthogonalEdgeStyle;rounded=0;orthogonalLoop=1;jettySize=auto;html=1;entryX=0;entryY=0.5;entryDx=0;entryDy=0;endArrow=none;endFill=0;strokeWidth=2;fontSize=15;fontFamily=Helvetica;" edge="1" parent="TKeheR-i_yWEPl4L2CH7-73" source="TKeheR-i_yWEPl4L2CH7-6" target="TKeheR-i_yWEPl4L2CH7-7">
          <mxGeometry relative="1" as="geometry" />
        </mxCell>
        <mxCell id="TKeheR-i_yWEPl4L2CH7-8" value="Probabilistic&amp;nbsp;&lt;br style=&quot;font-size: 15px;&quot;&gt;Budyko" style="rounded=1;whiteSpace=wrap;html=1;strokeWidth=2;fillColor=#e1d5e7;strokeColor=#9673a6;fontSize=15;fontFamily=Helvetica;fontStyle=1;" vertex="1" parent="TKeheR-i_yWEPl4L2CH7-73">
          <mxGeometry x="455" y="140" width="120" height="60" as="geometry" />
        </mxCell>
        <mxCell id="TKeheR-i_yWEPl4L2CH7-32" style="edgeStyle=orthogonalEdgeStyle;rounded=0;orthogonalLoop=1;jettySize=auto;html=1;entryX=0;entryY=0.5;entryDx=0;entryDy=0;endArrow=classic;endFill=1;strokeWidth=2;fontSize=15;fontFamily=Helvetica;" edge="1" parent="TKeheR-i_yWEPl4L2CH7-73" source="TKeheR-i_yWEPl4L2CH7-7" target="TKeheR-i_yWEPl4L2CH7-8">
          <mxGeometry relative="1" as="geometry" />
        </mxCell>
        <mxCell id="TKeheR-i_yWEPl4L2CH7-9" value="Identification of climate spaces&lt;br style=&quot;font-size: 15px;&quot;&gt;&lt;b style=&quot;font-size: 15px;&quot;&gt;Bottom-up&lt;/b&gt;" style="rounded=1;whiteSpace=wrap;html=1;strokeWidth=2;fillColor=#e1d5e7;strokeColor=#9673a6;fontSize=15;fontFamily=Helvetica;" vertex="1" parent="TKeheR-i_yWEPl4L2CH7-73">
          <mxGeometry x="135" y="240" width="120" height="60" as="geometry" />
        </mxCell>
        <mxCell id="TKeheR-i_yWEPl4L2CH7-23" style="edgeStyle=orthogonalEdgeStyle;rounded=0;orthogonalLoop=1;jettySize=auto;html=1;entryX=0.5;entryY=0;entryDx=0;entryDy=0;strokeWidth=2;fontSize=15;fontFamily=Helvetica;" edge="1" parent="TKeheR-i_yWEPl4L2CH7-73" source="TKeheR-i_yWEPl4L2CH7-6" target="TKeheR-i_yWEPl4L2CH7-9">
          <mxGeometry relative="1" as="geometry" />
        </mxCell>
        <mxCell id="TKeheR-i_yWEPl4L2CH7-10" value="&lt;span style=&quot;font-size: 15px;&quot;&gt;Aridity index&lt;/span&gt;&lt;br style=&quot;font-size: 15px;&quot;&gt;&lt;span style=&quot;font-size: 15px;&quot;&gt;&lt;b style=&quot;font-size: 15px;&quot;&gt;PE*/P*&lt;/b&gt;&lt;/span&gt;" style="rounded=1;whiteSpace=wrap;html=1;strokeWidth=2;fillColor=#f5f5f5;strokeColor=#666666;fontSize=15;fontFamily=Helvetica;" vertex="1" parent="TKeheR-i_yWEPl4L2CH7-73">
          <mxGeometry x="135" y="340" width="120" height="60" as="geometry" />
        </mxCell>
        <mxCell id="TKeheR-i_yWEPl4L2CH7-24" style="edgeStyle=orthogonalEdgeStyle;rounded=0;orthogonalLoop=1;jettySize=auto;html=1;strokeWidth=2;fontSize=15;fontFamily=Helvetica;" edge="1" parent="TKeheR-i_yWEPl4L2CH7-73" source="TKeheR-i_yWEPl4L2CH7-9" target="TKeheR-i_yWEPl4L2CH7-10">
          <mxGeometry relative="1" as="geometry" />
        </mxCell>
        <mxCell id="TKeheR-i_yWEPl4L2CH7-11" value="Vulnerability of water availability&amp;nbsp;plus uncertainty" style="rounded=1;whiteSpace=wrap;html=1;strokeWidth=2;fillColor=#e1d5e7;strokeColor=#9673a6;fontSize=15;fontFamily=Helvetica;fontStyle=1;" vertex="1" parent="TKeheR-i_yWEPl4L2CH7-73">
          <mxGeometry x="615" y="240" width="120" height="70" as="geometry" />
        </mxCell>
        <mxCell id="TKeheR-i_yWEPl4L2CH7-28" style="edgeStyle=orthogonalEdgeStyle;rounded=0;orthogonalLoop=1;jettySize=auto;html=1;entryX=0.5;entryY=0;entryDx=0;entryDy=0;strokeWidth=2;fontSize=15;fontFamily=Helvetica;" edge="1" parent="TKeheR-i_yWEPl4L2CH7-73" source="TKeheR-i_yWEPl4L2CH7-8" target="TKeheR-i_yWEPl4L2CH7-11">
          <mxGeometry relative="1" as="geometry" />
        </mxCell>
        <mxCell id="TKeheR-i_yWEPl4L2CH7-25" style="edgeStyle=orthogonalEdgeStyle;rounded=0;orthogonalLoop=1;jettySize=auto;html=1;entryX=0.5;entryY=1;entryDx=0;entryDy=0;strokeWidth=2;fontSize=15;fontFamily=Helvetica;" edge="1" parent="TKeheR-i_yWEPl4L2CH7-73" source="TKeheR-i_yWEPl4L2CH7-10" target="TKeheR-i_yWEPl4L2CH7-11">
          <mxGeometry relative="1" as="geometry" />
        </mxCell>
        <mxCell id="TKeheR-i_yWEPl4L2CH7-22" style="edgeStyle=orthogonalEdgeStyle;rounded=0;orthogonalLoop=1;jettySize=auto;html=1;entryX=0.408;entryY=1.05;entryDx=0;entryDy=0;entryPerimeter=0;strokeWidth=2;fontSize=15;fontFamily=Helvetica;" edge="1" parent="TKeheR-i_yWEPl4L2CH7-73" source="TKeheR-i_yWEPl4L2CH7-17" target="TKeheR-i_yWEPl4L2CH7-4">
          <mxGeometry relative="1" as="geometry">
            <Array as="points">
              <mxPoint x="584" y="115" />
            </Array>
          </mxGeometry>
        </mxCell>
        <mxCell id="TKeheR-i_yWEPl4L2CH7-17" value="Validation" style="rounded=1;whiteSpace=wrap;html=1;strokeWidth=2;fontSize=15;fontFamily=Helvetica;" vertex="1" parent="TKeheR-i_yWEPl4L2CH7-73">
          <mxGeometry x="625" y="100" width="100" height="30" as="geometry" />
        </mxCell>
        <mxCell id="TKeheR-i_yWEPl4L2CH7-21" style="edgeStyle=orthogonalEdgeStyle;rounded=0;orthogonalLoop=1;jettySize=auto;html=1;entryX=1;entryY=0.5;entryDx=0;entryDy=0;strokeWidth=2;fontSize=15;fontFamily=Helvetica;" edge="1" parent="TKeheR-i_yWEPl4L2CH7-73" source="TKeheR-i_yWEPl4L2CH7-5" target="TKeheR-i_yWEPl4L2CH7-17">
          <mxGeometry relative="1" as="geometry" />
        </mxCell>
        <mxCell id="TKeheR-i_yWEPl4L2CH7-27" style="edgeStyle=orthogonalEdgeStyle;rounded=0;orthogonalLoop=1;jettySize=auto;html=1;strokeWidth=2;fontSize=15;fontFamily=Helvetica;" edge="1" parent="TKeheR-i_yWEPl4L2CH7-73" source="TKeheR-i_yWEPl4L2CH7-20">
          <mxGeometry relative="1" as="geometry">
            <mxPoint x="515" y="370" as="targetPoint" />
          </mxGeometry>
        </mxCell>
        <mxCell id="TKeheR-i_yWEPl4L2CH7-20" value="Validation" style="rounded=1;whiteSpace=wrap;html=1;strokeWidth=2;fontSize=15;fontFamily=Helvetica;" vertex="1" parent="TKeheR-i_yWEPl4L2CH7-73">
          <mxGeometry x="465" y="260" width="100" height="30" as="geometry" />
        </mxCell>
        <mxCell id="TKeheR-i_yWEPl4L2CH7-26" style="edgeStyle=orthogonalEdgeStyle;rounded=0;orthogonalLoop=1;jettySize=auto;html=1;entryX=0.5;entryY=0;entryDx=0;entryDy=0;strokeWidth=2;fontSize=15;fontFamily=Helvetica;" edge="1" parent="TKeheR-i_yWEPl4L2CH7-73" source="TKeheR-i_yWEPl4L2CH7-8" target="TKeheR-i_yWEPl4L2CH7-20">
          <mxGeometry relative="1" as="geometry" />
        </mxCell>
        <mxCell id="TKeheR-i_yWEPl4L2CH7-56" value="" style="endArrow=none;dashed=1;html=1;dashPattern=1 3;strokeWidth=2;fontFamily=Helvetica;fontSize=18;" edge="1" parent="TKeheR-i_yWEPl4L2CH7-73">
          <mxGeometry width="50" height="50" relative="1" as="geometry">
            <mxPoint y="410" as="sourcePoint" />
            <mxPoint x="30" y="410" as="targetPoint" />
          </mxGeometry>
        </mxCell>
        <mxCell id="TKeheR-i_yWEPl4L2CH7-58" value="" style="endArrow=none;dashed=1;html=1;dashPattern=1 3;strokeWidth=2;fontFamily=Helvetica;fontSize=18;startArrow=none;" edge="1" parent="TKeheR-i_yWEPl4L2CH7-73">
          <mxGeometry width="50" height="50" relative="1" as="geometry">
            <mxPoint x="15" y="285" as="sourcePoint" />
            <mxPoint x="15" as="targetPoint" />
            <Array as="points">
              <mxPoint x="15" y="140" />
            </Array>
          </mxGeometry>
        </mxCell>
        <mxCell id="TKeheR-i_yWEPl4L2CH7-59" value="" style="endArrow=none;dashed=1;html=1;dashPattern=1 3;strokeWidth=2;fontFamily=Helvetica;fontSize=18;" edge="1" parent="TKeheR-i_yWEPl4L2CH7-73">
          <mxGeometry width="50" height="50" relative="1" as="geometry">
            <mxPoint x="5" as="sourcePoint" />
            <mxPoint x="35" as="targetPoint" />
          </mxGeometry>
        </mxCell>
        <mxCell id="TKeheR-i_yWEPl4L2CH7-60" value="" style="endArrow=none;dashed=1;html=1;dashPattern=1 3;strokeWidth=2;fontFamily=Helvetica;fontSize=18;" edge="1" parent="TKeheR-i_yWEPl4L2CH7-73">
          <mxGeometry width="50" height="50" relative="1" as="geometry">
            <mxPoint x="15" y="410" as="sourcePoint" />
            <mxPoint x="15" y="325" as="targetPoint" />
          </mxGeometry>
        </mxCell>
        <mxCell id="TKeheR-i_yWEPl4L2CH7-61" value="" style="endArrow=none;dashed=1;html=1;dashPattern=1 3;strokeWidth=2;fontFamily=Helvetica;fontSize=18;" edge="1" parent="TKeheR-i_yWEPl4L2CH7-73">
          <mxGeometry width="50" height="50" relative="1" as="geometry">
            <mxPoint x="5" y="220" as="sourcePoint" />
            <mxPoint x="35" y="220" as="targetPoint" />
          </mxGeometry>
        </mxCell>
        <mxCell id="TKeheR-i_yWEPl4L2CH7-35" value="Present" style="text;html=1;align=center;verticalAlign=middle;whiteSpace=wrap;rounded=0;fontFamily=Helvetica;fontSize=18;rotation=-90;fontStyle=1;fillColor=#FFFFFF;" vertex="1" parent="TKeheR-i_yWEPl4L2CH7-73">
          <mxGeometry x="-19.059999999999995" y="100" width="68.12" height="20" as="geometry" />
        </mxCell>
        <mxCell id="TKeheR-i_yWEPl4L2CH7-62" value="Future" style="text;html=1;align=center;verticalAlign=middle;whiteSpace=wrap;rounded=0;fontFamily=Helvetica;fontSize=18;rotation=-90;fontStyle=1;fillColor=#FFFFFF;" vertex="1" parent="TKeheR-i_yWEPl4L2CH7-73">
          <mxGeometry x="-19.059999999999995" y="300" width="68.12" height="20" as="geometry" />
        </mxCell>
        <mxCell id="TKeheR-i_yWEPl4L2CH7-63" value="" style="endArrow=none;dashed=1;html=1;dashPattern=1 3;strokeWidth=2;fontFamily=Helvetica;fontSize=18;startArrow=none;" edge="1" parent="TKeheR-i_yWEPl4L2CH7-73">
          <mxGeometry width="50" height="50" relative="1" as="geometry">
            <mxPoint x="842" y="385" as="sourcePoint" />
            <mxPoint x="842" as="targetPoint" />
            <Array as="points">
              <mxPoint x="842" y="240" />
            </Array>
          </mxGeometry>
        </mxCell>
        <mxCell id="TKeheR-i_yWEPl4L2CH7-67" value="" style="endArrow=none;dashed=1;html=1;dashPattern=1 3;strokeWidth=2;fontFamily=Helvetica;fontSize=18;" edge="1" parent="TKeheR-i_yWEPl4L2CH7-73">
          <mxGeometry width="50" height="50" relative="1" as="geometry">
            <mxPoint x="825" as="sourcePoint" />
            <mxPoint x="855" as="targetPoint" />
          </mxGeometry>
        </mxCell>
        <mxCell id="TKeheR-i_yWEPl4L2CH7-68" value="" style="endArrow=none;dashed=1;html=1;dashPattern=1 3;strokeWidth=2;fontFamily=Helvetica;fontSize=18;" edge="1" parent="TKeheR-i_yWEPl4L2CH7-73">
          <mxGeometry width="50" height="50" relative="1" as="geometry">
            <mxPoint x="825" y="130" as="sourcePoint" />
            <mxPoint x="855" y="130" as="targetPoint" />
          </mxGeometry>
        </mxCell>
        <mxCell id="TKeheR-i_yWEPl4L2CH7-69" value="" style="endArrow=none;dashed=1;html=1;dashPattern=1 3;strokeWidth=2;fontFamily=Helvetica;fontSize=18;" edge="1" parent="TKeheR-i_yWEPl4L2CH7-73">
          <mxGeometry width="50" height="50" relative="1" as="geometry">
            <mxPoint x="825" y="390" as="sourcePoint" />
            <mxPoint x="855" y="390" as="targetPoint" />
          </mxGeometry>
        </mxCell>
        <mxCell id="TKeheR-i_yWEPl4L2CH7-70" value="" style="endArrow=none;dashed=1;html=1;dashPattern=1 3;strokeWidth=2;fontFamily=Helvetica;fontSize=18;" edge="1" parent="TKeheR-i_yWEPl4L2CH7-73">
          <mxGeometry width="50" height="50" relative="1" as="geometry">
            <mxPoint x="825" y="239.16999999999996" as="sourcePoint" />
            <mxPoint x="855" y="239.16999999999996" as="targetPoint" />
          </mxGeometry>
        </mxCell>
        <mxCell id="TKeheR-i_yWEPl4L2CH7-53" value="Step 2" style="text;html=1;strokeColor=none;align=center;verticalAlign=middle;whiteSpace=wrap;rounded=0;fontFamily=Helvetica;fontSize=14;fontStyle=1;rotation=-90;fillColor=#ffffff;" vertex="1" parent="TKeheR-i_yWEPl4L2CH7-73">
          <mxGeometry x="816.25" y="170" width="47.5" height="30" as="geometry" />
        </mxCell>
        <mxCell id="TKeheR-i_yWEPl4L2CH7-54" value="Step 3" style="text;html=1;strokeColor=none;align=center;verticalAlign=middle;whiteSpace=wrap;rounded=0;fontFamily=Helvetica;fontSize=14;fontStyle=1;rotation=-90;fillColor=#ffffff;" vertex="1" parent="TKeheR-i_yWEPl4L2CH7-73">
          <mxGeometry x="816.25" y="290" width="47.5" height="30" as="geometry" />
        </mxCell>
        <mxCell id="TKeheR-i_yWEPl4L2CH7-47" value="Step 1" style="text;html=1;strokeColor=none;align=center;verticalAlign=middle;whiteSpace=wrap;rounded=0;fontFamily=Helvetica;fontSize=14;fontStyle=1;rotation=-90;fillColor=#ffffff;" vertex="1" parent="TKeheR-i_yWEPl4L2CH7-73">
          <mxGeometry x="816.25" y="51.25" width="47.5" height="30" as="geometry" />
        </mxCell>
      </root>
    </mxGraphModel>
  </diagram>
</mxfile>
